# xmcd
#
# Track frame offsets: 
#        150
#        13032
#        32142
#
# Disc length: 594 seconds
#
# Revision: 0
# Processed by: cddbd v1.5PL3 Copyright (c) Steve Scherf et al.
# Submitted via: ExactAudioCopy v0.90b4
#
DISCID=1b025003
DTITLE=LOVE LOVE STRAW - Helen
DYEAR=1999
DGENRE=Rock
TTITLE0=Helen
TTITLE1=Stay with me
TTITLE2=Black Coffee
EXTD=
EXTT0=
EXTT1=
EXTT2=
PLAYORDER=
